# xmcd
#
# Track frame offsets:
#	150
#	34688
#	71625
#	103275
#	144075
#	184875
#	226780
#
# Disc length: 3731 seconds
#
# Revision: 1
# Processed by: cddbd v1.5.1PL0 Copyright (c) Steve Scherf et al.
# Submitted via: CDex 1.50Beta5
#
DISCID=590e9107
DTITLE=メルティランサー - イースタンメトロポリス事件ファイル#1 吼えろ闘魂!四角いジャングル
DYEAR=1996
DGENRE=Game
TTITLE0=Episode-1 パニック・イン・ザ・レジャーランド
TTITLE1=Episode-2 スカウトマン、その名は…
TTITLE2=Episode-3 ナナVsアンジェラ、飛び散る火花!
TTITLE3=Episode-4 ノワール乱入!ランサーを捕獲せよ!!
TTITLE4=Episode-5 太陽にほえてみろ!
TTITLE5=Episode-6 脱出、そして栄光の果てに…
TTITLE6=Bonus Track エンディングナレーション集(完全収録版)
EXTD=
EXTT0=
EXTT1=
EXTT2=
EXTT3=
EXTT4=
EXTT5=
EXTT6=
PLAYORDER=
